<?xml version="1.0" standalone="no"?>
<!DOCTYPE svg PUBLIC "-//W3C//DTD SVG 20010904//EN"
 "http://www.w3.org/TR/2001/REC-SVG-20010904/DTD/svg10.dtd">
<svg version="1.0" xmlns="http://www.w3.org/2000/svg"
 width="258.000000pt" height="256.000000pt" viewBox="0 0 258.000000 256.000000"
 preserveAspectRatio="xMidYMid meet">
<metadata>
Created by potrace 1.16, written by Peter Selinger 2001-2019
</metadata>
<g transform="translate(0.000000,256.000000) scale(0.100000,-0.100000)"
fill="#000000" stroke="none">
<path d="M150 1965 l0 -495 50 0 50 0 0 445 0 445 435 0 435 0 0 50 0 50 -485
0 -485 0 0 -495z"/>
<path d="M626 1577 c-30 -30 -40 -123 -30 -289 6 -111 9 -123 33 -150 37 -41
161 -68 147 -32 -8 21 1 34 19 28 11 -5 12 -11 4 -25 -9 -17 -6 -19 25 -19 29
0 37 4 42 24 3 13 1 34 -6 45 -8 16 -8 31 1 59 6 20 9 51 7 67 -2 25 -9 31
-39 38 l-37 8 -4 97 c-5 113 -20 146 -77 162 -51 14 -59 13 -85 -13z"/>
</g>
</svg>
